<svg xmlns="http://www.w3.org/2000/svg" xmlns:xlink="http://www.w3.org/1999/xlink" viewBox="0 0 1158 1080"><defs><style>.cls-1{isolation:isolate;}.cls-2{fill:#c3956b;}.cls-3,.cls-4,.cls-6,.cls-8{fill:#101b2c;}.cls-3{mix-blend-mode:multiply;opacity:0.6;}.cls-5{fill:url(#radial-gradient);}.cls-6{font-size:26.16px;}.cls-6,.cls-8{font-family:MyriadPro-Regular, Myriad Pro;}.cls-7{fill:url(#radial-gradient-2);}.cls-8{font-size:14.52px;}.cls-9{letter-spacing:-0.03em;}</style><radialGradient id="radial-gradient" cx="578.89" cy="623" r="62.15" gradientUnits="userSpaceOnUse"><stop offset="0" stop-color="#c3956b"/><stop offset="1" stop-color="#998675"/></radialGradient><radialGradient id="radial-gradient-2" cx="578.89" cy="775" r="62.15" xlink:href="#radial-gradient"/></defs><g class="cls-1"><g id="Layer_1" data-name="Layer 1"><rect class="cls-2" x="330" y="156" width="498" height="768" rx="48.33"/><ellipse class="cls-3" cx="579" cy="524.65" rx="56.41" ry="1.26"/><polygon class="cls-4" points="657.43 436.46 683.78 402.62 657.43 368.78 631.09 402.62 657.43 436.46"/><polygon class="cls-4" points="500.57 368.78 474.22 402.62 500.57 436.46 526.91 402.62 500.57 368.78"/><polygon class="cls-4" points="538.82 402.06 579 350.44 619.18 402.06 645.53 368.22 579 282.76 512.47 368.22 538.82 402.06"/><polygon class="cls-4" points="619.18 402.05 579 453.66 538.82 402.05 512.47 435.89 579 521.34 645.53 435.89 619.18 402.05"/></g></g></svg>